<mxfile host="app.diagrams.net" agent="Mozilla/5.0 (Macintosh; Intel Mac OS X 10_15_7) AppleWebKit/537.36 (KHTML, like Gecko) Chrome/127.0.0.0 Safari/537.36" version="24.7.6">
  <diagram name="Page-1" id="s6KrvNxw93ChR6b4m98M">
    <mxGraphModel dx="2254" dy="783" grid="1" gridSize="10" guides="1" tooltips="1" connect="1" arrows="1" fold="1" page="1" pageScale="1" pageWidth="850" pageHeight="1100" math="0" shadow="0">
      <root>
        <mxCell id="0" />
        <mxCell id="1" parent="0" />
        <mxCell id="xDIa1F2VFs95qdDBm7Xm-56" value="" style="rounded=0;whiteSpace=wrap;html=1;fillColor=#f5f5f5;strokeColor=#666666;fontColor=#333333;" vertex="1" parent="1">
          <mxGeometry x="-170" y="40" width="430" height="510" as="geometry" />
        </mxCell>
        <mxCell id="xDIa1F2VFs95qdDBm7Xm-2" value="" style="rounded=0;whiteSpace=wrap;html=1;fillColor=#f5f5f5;strokeColor=#666666;fontColor=#333333;" vertex="1" parent="1">
          <mxGeometry x="260" y="40" width="549" height="510" as="geometry" />
        </mxCell>
        <mxCell id="xDIa1F2VFs95qdDBm7Xm-14" style="edgeStyle=orthogonalEdgeStyle;rounded=0;orthogonalLoop=1;jettySize=auto;html=1;entryX=0;entryY=0.5;entryDx=0;entryDy=0;" edge="1" parent="1" source="xDIa1F2VFs95qdDBm7Xm-5" target="xDIa1F2VFs95qdDBm7Xm-8">
          <mxGeometry relative="1" as="geometry" />
        </mxCell>
        <mxCell id="xDIa1F2VFs95qdDBm7Xm-15" style="edgeStyle=orthogonalEdgeStyle;rounded=0;orthogonalLoop=1;jettySize=auto;html=1;" edge="1" parent="1" source="xDIa1F2VFs95qdDBm7Xm-5" target="xDIa1F2VFs95qdDBm7Xm-13">
          <mxGeometry relative="1" as="geometry" />
        </mxCell>
        <mxCell id="xDIa1F2VFs95qdDBm7Xm-21" value="" style="edgeStyle=orthogonalEdgeStyle;rounded=0;orthogonalLoop=1;jettySize=auto;html=1;" edge="1" parent="1" source="xDIa1F2VFs95qdDBm7Xm-5" target="xDIa1F2VFs95qdDBm7Xm-20">
          <mxGeometry relative="1" as="geometry" />
        </mxCell>
        <mxCell id="xDIa1F2VFs95qdDBm7Xm-5" value="AuthModule" style="rounded=0;whiteSpace=wrap;html=1;fillColor=#ffe6cc;strokeColor=#d79b00;fontStyle=1" vertex="1" parent="1">
          <mxGeometry x="305" y="100" width="120" height="60" as="geometry" />
        </mxCell>
        <mxCell id="xDIa1F2VFs95qdDBm7Xm-16" style="edgeStyle=orthogonalEdgeStyle;rounded=0;orthogonalLoop=1;jettySize=auto;html=1;entryX=0;entryY=0.5;entryDx=0;entryDy=0;" edge="1" parent="1" source="xDIa1F2VFs95qdDBm7Xm-6" target="xDIa1F2VFs95qdDBm7Xm-9">
          <mxGeometry relative="1" as="geometry" />
        </mxCell>
        <mxCell id="xDIa1F2VFs95qdDBm7Xm-17" style="edgeStyle=orthogonalEdgeStyle;rounded=0;orthogonalLoop=1;jettySize=auto;html=1;" edge="1" parent="1" source="xDIa1F2VFs95qdDBm7Xm-6" target="xDIa1F2VFs95qdDBm7Xm-12">
          <mxGeometry relative="1" as="geometry" />
        </mxCell>
        <mxCell id="xDIa1F2VFs95qdDBm7Xm-23" value="" style="edgeStyle=orthogonalEdgeStyle;rounded=0;orthogonalLoop=1;jettySize=auto;html=1;" edge="1" parent="1" source="xDIa1F2VFs95qdDBm7Xm-6" target="xDIa1F2VFs95qdDBm7Xm-22">
          <mxGeometry relative="1" as="geometry" />
        </mxCell>
        <mxCell id="xDIa1F2VFs95qdDBm7Xm-6" value="RecruitingModule" style="rounded=0;whiteSpace=wrap;html=1;fillColor=#ffe6cc;strokeColor=#d79b00;fontStyle=1" vertex="1" parent="1">
          <mxGeometry x="305" y="248" width="120" height="60" as="geometry" />
        </mxCell>
        <mxCell id="xDIa1F2VFs95qdDBm7Xm-18" style="edgeStyle=orthogonalEdgeStyle;rounded=0;orthogonalLoop=1;jettySize=auto;html=1;entryX=0;entryY=0.5;entryDx=0;entryDy=0;" edge="1" parent="1" source="xDIa1F2VFs95qdDBm7Xm-7" target="xDIa1F2VFs95qdDBm7Xm-10">
          <mxGeometry relative="1" as="geometry" />
        </mxCell>
        <mxCell id="xDIa1F2VFs95qdDBm7Xm-19" style="edgeStyle=orthogonalEdgeStyle;rounded=0;orthogonalLoop=1;jettySize=auto;html=1;" edge="1" parent="1" source="xDIa1F2VFs95qdDBm7Xm-7" target="xDIa1F2VFs95qdDBm7Xm-11">
          <mxGeometry relative="1" as="geometry" />
        </mxCell>
        <mxCell id="xDIa1F2VFs95qdDBm7Xm-25" value="" style="edgeStyle=orthogonalEdgeStyle;rounded=0;orthogonalLoop=1;jettySize=auto;html=1;" edge="1" parent="1" source="xDIa1F2VFs95qdDBm7Xm-7" target="xDIa1F2VFs95qdDBm7Xm-24">
          <mxGeometry relative="1" as="geometry" />
        </mxCell>
        <mxCell id="xDIa1F2VFs95qdDBm7Xm-7" value="AdminModule" style="rounded=0;whiteSpace=wrap;html=1;fillColor=#ffe6cc;strokeColor=#d79b00;fontStyle=1" vertex="1" parent="1">
          <mxGeometry x="305" y="400" width="120" height="60" as="geometry" />
        </mxCell>
        <mxCell id="xDIa1F2VFs95qdDBm7Xm-32" value="" style="edgeStyle=orthogonalEdgeStyle;rounded=0;orthogonalLoop=1;jettySize=auto;html=1;" edge="1" parent="1" source="xDIa1F2VFs95qdDBm7Xm-8" target="xDIa1F2VFs95qdDBm7Xm-31">
          <mxGeometry relative="1" as="geometry" />
        </mxCell>
        <mxCell id="xDIa1F2VFs95qdDBm7Xm-8" value="pages" style="rounded=0;whiteSpace=wrap;html=1;fillColor=#ffe6cc;strokeColor=#d79b00;fontStyle=1" vertex="1" parent="1">
          <mxGeometry x="505" y="90" width="90" height="30" as="geometry" />
        </mxCell>
        <mxCell id="xDIa1F2VFs95qdDBm7Xm-46" style="edgeStyle=orthogonalEdgeStyle;rounded=0;orthogonalLoop=1;jettySize=auto;html=1;" edge="1" parent="1" source="xDIa1F2VFs95qdDBm7Xm-9" target="xDIa1F2VFs95qdDBm7Xm-45">
          <mxGeometry relative="1" as="geometry" />
        </mxCell>
        <mxCell id="xDIa1F2VFs95qdDBm7Xm-9" value="middlewares" style="rounded=0;whiteSpace=wrap;html=1;fillColor=#e1d5e7;strokeColor=#9673a6;fontStyle=1" vertex="1" parent="1">
          <mxGeometry x="509" y="240" width="90" height="30" as="geometry" />
        </mxCell>
        <mxCell id="xDIa1F2VFs95qdDBm7Xm-44" style="edgeStyle=orthogonalEdgeStyle;rounded=0;orthogonalLoop=1;jettySize=auto;html=1;entryX=0;entryY=0.5;entryDx=0;entryDy=0;" edge="1" parent="1" source="xDIa1F2VFs95qdDBm7Xm-10" target="xDIa1F2VFs95qdDBm7Xm-36">
          <mxGeometry relative="1" as="geometry" />
        </mxCell>
        <mxCell id="xDIa1F2VFs95qdDBm7Xm-10" value="middlewares" style="rounded=0;whiteSpace=wrap;html=1;fillColor=#e1d5e7;strokeColor=#9673a6;fontStyle=1" vertex="1" parent="1">
          <mxGeometry x="512" y="390" width="90" height="30" as="geometry" />
        </mxCell>
        <mxCell id="xDIa1F2VFs95qdDBm7Xm-49" value="" style="edgeStyle=orthogonalEdgeStyle;rounded=0;orthogonalLoop=1;jettySize=auto;html=1;" edge="1" parent="1" source="xDIa1F2VFs95qdDBm7Xm-11" target="xDIa1F2VFs95qdDBm7Xm-48">
          <mxGeometry relative="1" as="geometry" />
        </mxCell>
        <mxCell id="xDIa1F2VFs95qdDBm7Xm-11" value="pages" style="rounded=0;whiteSpace=wrap;html=1;fillColor=#ffe6cc;strokeColor=#d79b00;fontStyle=1" vertex="1" parent="1">
          <mxGeometry x="512" y="440" width="90" height="30" as="geometry" />
        </mxCell>
        <mxCell id="xDIa1F2VFs95qdDBm7Xm-34" value="" style="edgeStyle=orthogonalEdgeStyle;rounded=0;orthogonalLoop=1;jettySize=auto;html=1;" edge="1" parent="1" source="xDIa1F2VFs95qdDBm7Xm-12" target="xDIa1F2VFs95qdDBm7Xm-33">
          <mxGeometry relative="1" as="geometry" />
        </mxCell>
        <mxCell id="xDIa1F2VFs95qdDBm7Xm-12" value="pages" style="rounded=0;whiteSpace=wrap;html=1;fillColor=#ffe6cc;strokeColor=#d79b00;fontStyle=1" vertex="1" parent="1">
          <mxGeometry x="509" y="290" width="90" height="30" as="geometry" />
        </mxCell>
        <mxCell id="xDIa1F2VFs95qdDBm7Xm-52" style="edgeStyle=orthogonalEdgeStyle;rounded=0;orthogonalLoop=1;jettySize=auto;html=1;" edge="1" parent="1" source="xDIa1F2VFs95qdDBm7Xm-13" target="xDIa1F2VFs95qdDBm7Xm-51">
          <mxGeometry relative="1" as="geometry" />
        </mxCell>
        <mxCell id="xDIa1F2VFs95qdDBm7Xm-13" value="middlewares" style="rounded=0;whiteSpace=wrap;html=1;fillColor=#e1d5e7;strokeColor=#9673a6;fontStyle=1" vertex="1" parent="1">
          <mxGeometry x="505" y="140" width="90" height="30" as="geometry" />
        </mxCell>
        <mxCell id="xDIa1F2VFs95qdDBm7Xm-43" value="" style="edgeStyle=orthogonalEdgeStyle;rounded=0;orthogonalLoop=1;jettySize=auto;html=1;" edge="1" parent="1" source="xDIa1F2VFs95qdDBm7Xm-20" target="xDIa1F2VFs95qdDBm7Xm-42">
          <mxGeometry relative="1" as="geometry" />
        </mxCell>
        <mxCell id="xDIa1F2VFs95qdDBm7Xm-20" value="AuthUseCase" style="rounded=0;whiteSpace=wrap;html=1;fillColor=#dae8fc;strokeColor=#6c8ebf;fontStyle=1" vertex="1" parent="1">
          <mxGeometry x="90" y="100" width="120" height="60" as="geometry" />
        </mxCell>
        <mxCell id="xDIa1F2VFs95qdDBm7Xm-41" style="edgeStyle=orthogonalEdgeStyle;rounded=0;orthogonalLoop=1;jettySize=auto;html=1;" edge="1" parent="1" source="xDIa1F2VFs95qdDBm7Xm-22" target="xDIa1F2VFs95qdDBm7Xm-40">
          <mxGeometry relative="1" as="geometry" />
        </mxCell>
        <mxCell id="xDIa1F2VFs95qdDBm7Xm-22" value="RecruitingUseCase" style="rounded=0;whiteSpace=wrap;html=1;fillColor=#dae8fc;strokeColor=#6c8ebf;fontStyle=1" vertex="1" parent="1">
          <mxGeometry x="90" y="248" width="120" height="60" as="geometry" />
        </mxCell>
        <mxCell id="xDIa1F2VFs95qdDBm7Xm-38" value="" style="edgeStyle=orthogonalEdgeStyle;rounded=0;orthogonalLoop=1;jettySize=auto;html=1;" edge="1" parent="1" source="xDIa1F2VFs95qdDBm7Xm-24" target="xDIa1F2VFs95qdDBm7Xm-37">
          <mxGeometry relative="1" as="geometry" />
        </mxCell>
        <mxCell id="xDIa1F2VFs95qdDBm7Xm-24" value="AdminUseCase" style="rounded=0;whiteSpace=wrap;html=1;fillColor=#dae8fc;strokeColor=#6c8ebf;fontStyle=1" vertex="1" parent="1">
          <mxGeometry x="90" y="400" width="120" height="60" as="geometry" />
        </mxCell>
        <mxCell id="xDIa1F2VFs95qdDBm7Xm-31" value="AuthPage" style="rounded=0;whiteSpace=wrap;html=1;fillColor=#ffe6cc;strokeColor=#d79b00;fontStyle=1" vertex="1" parent="1">
          <mxGeometry x="660" y="90" width="90" height="30" as="geometry" />
        </mxCell>
        <mxCell id="xDIa1F2VFs95qdDBm7Xm-33" value="RecruitingPage" style="rounded=0;whiteSpace=wrap;html=1;fillColor=#ffe6cc;strokeColor=#d79b00;fontStyle=1" vertex="1" parent="1">
          <mxGeometry x="660" y="290" width="120" height="30" as="geometry" />
        </mxCell>
        <mxCell id="xDIa1F2VFs95qdDBm7Xm-36" value="AdminMiddleware" style="rounded=0;whiteSpace=wrap;html=1;fillColor=#e1d5e7;strokeColor=#9673a6;fontStyle=1" vertex="1" parent="1">
          <mxGeometry x="660" y="390" width="120" height="30" as="geometry" />
        </mxCell>
        <mxCell id="xDIa1F2VFs95qdDBm7Xm-37" value="&lt;span style=&quot;font-weight: 400;&quot;&gt;&amp;lt;&amp;lt;interface &amp;gt;&amp;gt;&lt;/span&gt;&lt;br&gt;AdminRepository" style="rounded=0;whiteSpace=wrap;html=1;fillColor=#dae8fc;strokeColor=#6c8ebf;fontStyle=1;dashed=1;" vertex="1" parent="1">
          <mxGeometry x="-120" y="400" width="140" height="60" as="geometry" />
        </mxCell>
        <mxCell id="xDIa1F2VFs95qdDBm7Xm-40" value="&lt;span style=&quot;font-weight: normal;&quot;&gt;&amp;lt;&amp;lt;interface &amp;gt;&amp;gt;&lt;/span&gt;&lt;br&gt;RecruitingRepository" style="rounded=0;whiteSpace=wrap;html=1;fillColor=#dae8fc;strokeColor=#6c8ebf;fontStyle=1;dashed=1;" vertex="1" parent="1">
          <mxGeometry x="-120" y="248" width="140" height="60" as="geometry" />
        </mxCell>
        <mxCell id="xDIa1F2VFs95qdDBm7Xm-42" value="&lt;span style=&quot;font-weight: 400;&quot;&gt;&amp;lt;&amp;lt;interface &amp;gt;&amp;gt;&lt;/span&gt;&lt;br&gt;AuthRepository" style="rounded=0;whiteSpace=wrap;html=1;fillColor=#dae8fc;strokeColor=#6c8ebf;fontStyle=1;dashed=1;" vertex="1" parent="1">
          <mxGeometry x="-120" y="100" width="140" height="60" as="geometry" />
        </mxCell>
        <mxCell id="xDIa1F2VFs95qdDBm7Xm-45" value="RecruitingPage" style="rounded=0;whiteSpace=wrap;html=1;fillColor=#e1d5e7;strokeColor=#9673a6;fontStyle=1" vertex="1" parent="1">
          <mxGeometry x="660" y="240" width="120" height="30" as="geometry" />
        </mxCell>
        <mxCell id="xDIa1F2VFs95qdDBm7Xm-48" value="AdminPage" style="rounded=0;whiteSpace=wrap;html=1;fillColor=#ffe6cc;strokeColor=#d79b00;fontStyle=1" vertex="1" parent="1">
          <mxGeometry x="660" y="440" width="120" height="30" as="geometry" />
        </mxCell>
        <mxCell id="xDIa1F2VFs95qdDBm7Xm-51" value="AuthMiddleware" style="rounded=0;whiteSpace=wrap;html=1;fillColor=#e1d5e7;strokeColor=#9673a6;fontStyle=1" vertex="1" parent="1">
          <mxGeometry x="660" y="140" width="120" height="30" as="geometry" />
        </mxCell>
        <mxCell id="xDIa1F2VFs95qdDBm7Xm-53" value="AuthRoutingModule" style="rounded=0;whiteSpace=wrap;html=1;fillColor=#f5f5f5;strokeColor=#666666;fontStyle=1;fontColor=#333333;" vertex="1" parent="1">
          <mxGeometry x="305" y="170" width="120" height="20" as="geometry" />
        </mxCell>
        <mxCell id="xDIa1F2VFs95qdDBm7Xm-54" value="RecruitingRouting" style="rounded=0;whiteSpace=wrap;html=1;fillColor=#f5f5f5;strokeColor=#666666;fontStyle=1;fontColor=#333333;" vertex="1" parent="1">
          <mxGeometry x="305" y="320" width="120" height="20" as="geometry" />
        </mxCell>
        <mxCell id="xDIa1F2VFs95qdDBm7Xm-55" value="AdminRoutingModule" style="rounded=0;whiteSpace=wrap;html=1;fillColor=#f5f5f5;strokeColor=#666666;fontStyle=1;fontColor=#333333;" vertex="1" parent="1">
          <mxGeometry x="300" y="466" width="135" height="20" as="geometry" />
        </mxCell>
        <mxCell id="xDIa1F2VFs95qdDBm7Xm-57" value="Domain Layer" style="text;html=1;align=center;verticalAlign=middle;whiteSpace=wrap;rounded=0;" vertex="1" parent="1">
          <mxGeometry x="-170" y="520" width="100" height="30" as="geometry" />
        </mxCell>
        <mxCell id="xDIa1F2VFs95qdDBm7Xm-59" value="Presentation Layer" style="text;html=1;align=center;verticalAlign=middle;whiteSpace=wrap;rounded=0;" vertex="1" parent="1">
          <mxGeometry x="260" y="520" width="130" height="30" as="geometry" />
        </mxCell>
        <mxCell id="xDIa1F2VFs95qdDBm7Xm-60" value="" style="rounded=0;whiteSpace=wrap;html=1;fillColor=#f5f5f5;strokeColor=#666666;fontColor=#333333;" vertex="1" parent="1">
          <mxGeometry x="-370" y="40" width="200" height="510" as="geometry" />
        </mxCell>
        <mxCell id="xDIa1F2VFs95qdDBm7Xm-61" value="Data Layer" style="text;html=1;align=center;verticalAlign=middle;whiteSpace=wrap;rounded=0;" vertex="1" parent="1">
          <mxGeometry x="-340" y="510" width="100" height="30" as="geometry" />
        </mxCell>
        <mxCell id="xDIa1F2VFs95qdDBm7Xm-64" value="AdminRepository" style="rounded=0;whiteSpace=wrap;html=1;fillColor=#dae8fc;strokeColor=#6c8ebf;fontStyle=1" vertex="1" parent="1">
          <mxGeometry x="-340" y="400" width="140" height="60" as="geometry" />
        </mxCell>
        <mxCell id="xDIa1F2VFs95qdDBm7Xm-65" value="RecruitingRepository" style="rounded=0;whiteSpace=wrap;html=1;fillColor=#dae8fc;strokeColor=#6c8ebf;fontStyle=1" vertex="1" parent="1">
          <mxGeometry x="-340" y="248" width="140" height="60" as="geometry" />
        </mxCell>
        <mxCell id="xDIa1F2VFs95qdDBm7Xm-67" value="AuthRepository" style="rounded=0;whiteSpace=wrap;html=1;fillColor=#dae8fc;strokeColor=#6c8ebf;fontStyle=1" vertex="1" parent="1">
          <mxGeometry x="-340" y="100" width="140" height="60" as="geometry" />
        </mxCell>
        <mxCell id="xDIa1F2VFs95qdDBm7Xm-69" style="edgeStyle=orthogonalEdgeStyle;rounded=0;orthogonalLoop=1;jettySize=auto;html=1;dashed=1;" edge="1" parent="1" source="xDIa1F2VFs95qdDBm7Xm-42" target="xDIa1F2VFs95qdDBm7Xm-67">
          <mxGeometry relative="1" as="geometry" />
        </mxCell>
        <mxCell id="xDIa1F2VFs95qdDBm7Xm-71" style="edgeStyle=orthogonalEdgeStyle;rounded=0;orthogonalLoop=1;jettySize=auto;html=1;dashed=1;" edge="1" parent="1" source="xDIa1F2VFs95qdDBm7Xm-40" target="xDIa1F2VFs95qdDBm7Xm-65">
          <mxGeometry relative="1" as="geometry" />
        </mxCell>
        <mxCell id="xDIa1F2VFs95qdDBm7Xm-72" style="edgeStyle=orthogonalEdgeStyle;rounded=0;orthogonalLoop=1;jettySize=auto;html=1;entryX=1;entryY=0.5;entryDx=0;entryDy=0;startArrow=blockThin;startFill=0;dashed=1;" edge="1" parent="1" source="xDIa1F2VFs95qdDBm7Xm-37" target="xDIa1F2VFs95qdDBm7Xm-64">
          <mxGeometry relative="1" as="geometry" />
        </mxCell>
        <mxCell id="xDIa1F2VFs95qdDBm7Xm-73" value="AuthEntity" style="rounded=0;whiteSpace=wrap;html=1;fillColor=#dae8fc;strokeColor=#6c8ebf;fontStyle=1" vertex="1" parent="1">
          <mxGeometry x="-340" y="170" width="140" height="20" as="geometry" />
        </mxCell>
        <mxCell id="xDIa1F2VFs95qdDBm7Xm-74" value="RecrutingEntity" style="rounded=0;whiteSpace=wrap;html=1;fillColor=#dae8fc;strokeColor=#6c8ebf;fontStyle=1" vertex="1" parent="1">
          <mxGeometry x="-340" y="320" width="140" height="20" as="geometry" />
        </mxCell>
        <mxCell id="xDIa1F2VFs95qdDBm7Xm-3" value="SMART TALENT TEST - 21 AGO 2024" style="text;html=1;align=center;verticalAlign=middle;whiteSpace=wrap;rounded=0;fontStyle=1;fillColor=#d5e8d4;strokeColor=#82b366;" vertex="1" parent="1">
          <mxGeometry x="-370" y="40" width="230" height="30" as="geometry" />
        </mxCell>
        <mxCell id="xDIa1F2VFs95qdDBm7Xm-75" value="AdminEntity" style="rounded=0;whiteSpace=wrap;html=1;fillColor=#dae8fc;strokeColor=#6c8ebf;fontStyle=1" vertex="1" parent="1">
          <mxGeometry x="-340" y="466" width="140" height="20" as="geometry" />
        </mxCell>
      </root>
    </mxGraphModel>
  </diagram>
</mxfile>
